Patient4_TMGait_0pt4_01_left_07_GRF.mot
version=1
nRows=52
nColumns=19
inDegrees=no
endheader
time	F1x	F1y	F1z	M1x	M1y	M1z	F2x	F2y	F2z	M2x	M2y	M2z	EC1x	EC1y	EC1z	EC2x	EC2y	EC2z
7.96	0.80793	8.6484	-0.36293	-2.7806	1.1106	9.5273	-37.5815	762.4205	-70.8524	270.5447	87.2435	821.5903	-0.0592	0.0182	-0.0073	-0.0462	0.0165	0.9585
7.9734	0.39761	6.3046	-0.22432	-2.0706	0.65223	6.9532	-34.406	750.6615	-68.6508	265.6586	83.9121	807.9473	-0.0592	0.0182	-0.0073	-0.0462	0.0165	0.9585
7.9867	0.091618	4.3516	-0.1016	-1.4819	0.26504	4.8303	-30.9378	739.1697	-66.2265	260.9683	80.123	793.686	-0.0592	0.0182	-0.0073	-0.0462	0.0165	0.9585
8.0001	-0.11109	2.8913	0.0048387	-1.0453	-0.037546	3.2564	-27.3666	729.5724	-63.7303	257.1143	76.097	780.5269	-0.0592	0.0182	-0.0073	-0.0462	0.0165	0.9585
8.0134	-0.24048	1.9069	0.091022	-0.75588	-0.25689	2.204	-23.8405	723.319	-61.3076	254.6376	72.0597	770.0931	-0.0592	0.0182	-0.0073	-0.0462	0.0165	0.9585
8.0268	-0.32135	1.3177	0.15659	-0.58711	-0.40353	1.5773	-20.4626	721.4407	-59.0993	253.8986	68.2263	763.6073	-0.0592	0.0182	-0.0073	-0.0462	0.0165	0.9585
8.0401	-0.38164	1.0062	0.20415	-0.50215	-0.49421	1.2511	-17.3093	724.3785	-57.2187	255.0218	64.7674	761.6841	-0.0592	0.0182	-0.0073	-0.0462	0.0165	0.9585
8.0535	-0.44333	0.84593	0.236	-0.45954	-0.54924	1.0916	-14.4157	731.8741	-55.7572	257.8664	61.8064	764.2055	-0.0592	0.0182	-0.0073	-0.0462	0.0165	0.9585
8.0669	-0.52763	0.71552	0.25789	-0.416	-0.5894	0.95859	-11.8074	742.9864	-54.7724	262.0383	59.4197	770.3544	-0.0592	0.0182	-0.0073	-0.0462	0.0165	0.9585
8.0802	-0.64617	0.50501	0.27603	-0.33046	-0.63218	0.7324	-9.4933	756.2076	-54.2771	266.9381	57.6266	778.7193	-0.0592	0.0182	-0.0073	-0.0462	0.0165	0.9585
8.0936	-0.79747	0.097232	0.28912	-0.16153	-0.67988	0.28542	-7.4433	769.686	-54.2519	271.8511	56.3996	787.5201	-0.0592	0.0182	-0.0073	-0.0462	0.0165	0.9585
8.1069	-0.97219	-0.59683	0.30165	0.12412	-0.73567	-0.47989	-5.6091	781.5255	-54.6332	276.0624	55.6623	794.9161	-0.0592	0.0182	-0.0073	-0.0462	0.0165	0.9585
8.1203	-1.1453	-1.6361	0.30005	0.54728	-0.77713	-1.6289	-3.9347	790.0943	-55.3333	278.9719	55.3137	799.3106	-0.0592	0.0182	-0.0073	-0.0462	0.0165	0.9585
8.1336	-1.259	-3.0257	0.27824	1.1078	-0.77962	-3.1673	-2.3763	794.2597	-56.2529	280.1772	55.2454	799.6028	-0.0592	0.0182	-0.0073	-0.0462	0.0165	0.9585
8.147	-1.2202	-4.6578	0.20644	1.7622	-0.68183	-4.9738	-0.90004	793.4581	-57.3109	279.4986	55.3703	795.236	-0.0592	0.0182	-0.0073	-0.0462	0.0165	0.9585
8.1604	-0.90201	-6.2707	0.06693	2.4088	-0.41278	-6.7485	0.50894	787.7347	-58.4233	276.9921	55.6032	786.2378	-0.0592	0.0182	-0.0073	-0.0462	0.0165	0.9585
8.1737	-0.13986	-7.3703	-0.1788	2.8537	0.1363	-7.9401	1.8789	777.7309	-59.531	272.936	55.8804	773.2013	-0.0592	0.0182	-0.0073	-0.0462	0.0165	0.9585
8.1871	1.2367	-7.1856	-0.54878	2.7943	1.0608	-7.7111	3.2712	764.5433	-60.5781	267.7723	56.1315	757.1395	-0.0592	0.0182	-0.0073	-0.0462	0.0165	0.9585
8.2004	3.3922	-4.6334	-1.0662	1.8057	2.449	-4.8846	4.7509	749.4668	-61.5335	262.0096	56.3008	739.2509	-0.0592	0.0182	-0.0073	-0.0462	0.0165	0.9585
8.2138	6.4217	1.6619	-1.716	-0.65068	4.3257	2.0315	6.3927	733.7419	-62.3554	256.1275	56.3144	720.6826	-0.0592	0.0182	-0.0073	-0.0462	0.0165	0.9585
8.2271	10.287	13.2618	-2.4481	-5.1875	6.6217	14.727	8.2482	718.345	-62.9993	250.4957	56.0977	702.3728	-0.0592	0.0182	-0.0073	-0.0462	0.0165	0.9585
8.2405	14.6846	31.6786	-3.1453	-12.3971	9.0931	34.8483	10.3034	703.8161	-63.3687	245.3162	55.553	684.8773	-0.0592	0.0182	-0.0073	-0.0462	0.0165	0.9585
8.2539	18.9369	57.9414	-3.6043	-22.6824	11.2554	63.5129	12.458	690.2137	-63.338	240.6016	54.5933	668.3379	-0.0592	0.0182	-0.0073	-0.0462	0.0165	0.9585
8.2672	21.9181	91.9775	-3.5466	-36.0173	12.3637	100.6394	14.5378	677.1247	-62.7574	236.1775	53.1424	652.4909	-0.0592	0.0182	-0.0073	-0.0462	0.0165	0.9585
8.2806	22.2092	131.9646	-2.6062	-51.6856	11.4647	144.2406	16.3117	663.7278	-61.515	231.7135	51.1896	636.713	-0.0592	0.0182	-0.0073	-0.0462	0.0165	0.9585
8.2939	19.2829	174.4115	-0.29559	-68.2791	7.8019	190.5462	17.5479	649.0621	-59.5615	226.8261	48.7881	620.2375	-0.0592	0.0182	-0.0073	-0.0462	0.0165	0.9585
8.3073	14.1142	214.9053	3.7373	-84.0434	1.4068	234.6911	18.1333	632.4173	-56.9759	221.2232	46.0737	602.4734	-0.0592	0.0182	-0.0073	-0.0462	0.0165	0.9585
8.3206	8.1253	250.3734	8.936	-97.7982	-6.5454	273.1523	18.1294	613.5911	-53.9725	214.8005	43.2401	583.2148	-0.0592	0.0182	-0.0073	-0.0462	0.0165	0.9585
8.334	2.34	280.3134	14.5668	-109.385	-14.845	305.2865	17.7449	592.7746	-50.8422	207.613	40.4851	562.5411	-0.0592	0.0182	-0.0073	-0.0462	0.0165	0.9585
8.3474	-2.5977	305.7523	19.6869	-119.2639	-22.2378	332.2042	17.2519	570.2426	-47.7971	199.7667	37.9043	540.5737	-0.0592	0.0182	-0.0073	-0.0462	0.0165	0.9585
8.3607	-6.4329	327.8816	23.7235	-127.9418	-27.9996	355.2718	16.8685	546.0881	-44.888	191.3175	35.4638	517.2738	-0.0592	0.0182	-0.0073	-0.0462	0.0165	0.9585
8.3741	-9.15	347.5723	26.295	-135.7728	-31.7292	375.4795	16.7275	520.1707	-42.03	182.2407	33.0289	492.4112	-0.0592	0.0182	-0.0073	-0.0462	0.0165	0.9585
8.3874	-10.8736	365.4524	27.5137	-142.9746	-33.5921	393.5689	16.8715	492.1715	-39.1273	172.4408	30.4795	465.6221	-0.0592	0.0182	-0.0073	-0.0462	0.0165	0.9585
8.4008	-11.7681	382.2124	27.6635	-149.7694	-33.9691	410.331	17.2489	461.7273	-36.1125	161.793	27.749	436.535	-0.0592	0.0182	-0.0073	-0.0462	0.0165	0.9585
8.4141	-12.0131	398.7341	27.3394	-156.4387	-33.5556	426.7679	17.7053	428.5426	-32.9874	150.1874	24.8681	404.8723	-0.0592	0.0182	-0.0073	-0.0462	0.0165	0.9585
8.4275	-11.7581	416.0742	27.0482	-163.3409	-32.9495	443.9906	18.0054	392.5287	-29.7694	137.5848	21.9156	370.5765	-0.0592	0.0182	-0.0073	-0.0462	0.0165	0.9585
8.4409	-11.187	435.3559	27.3128	-170.8662	-32.768	463.1623	17.8953	353.8818	-26.498	124.0463	19.0071	333.8697	-0.0592	0.0182	-0.0073	-0.0462	0.0165	0.9585
8.4542	-10.524	457.669	28.4209	-179.4115	-33.3983	485.3879	17.1327	313.1268	-23.2127	109.7526	16.2626	295.2758	-0.0592	0.0182	-0.0073	-0.0462	0.0165	0.9585
8.4676	-9.9413	484.0081	30.5215	-189.3521	-35.0555	511.6713	15.5506	271.1357	-19.9725	95.0115	13.8021	255.6289	-0.0592	0.0182	-0.0073	-0.0462	0.0165	0.9585
8.4809	-9.515	515.089	33.4691	-200.9754	-37.6109	542.7	13.1368	229.1348	-16.8522	80.2572	11.7124	216.0767	-0.0592	0.0182	-0.0073	-0.0462	0.0165	0.9585
8.4943	-9.2475	551.038	37.0937	-214.3416	-40.88	578.5476	10.0444	188.5757	-13.957	66.0042	10.0508	177.9592	-0.0592	0.0182	-0.0073	-0.0462	0.0165	0.9585
8.5076	-9.1517	591.1564	41.1663	-229.1875	-44.6246	618.4442	6.5633	150.886	-11.3791	52.7596	8.8102	142.5772	-0.0592	0.0182	-0.0073	-0.0462	0.0165	0.9585
8.521	-9.2033	633.8645	45.5541	-244.8994	-48.6944	660.7337	3.0589	117.1982	-9.1729	40.9253	7.9168	110.954	-0.0592	0.0182	-0.0073	-0.0462	0.0165	0.9585
8.5344	-9.3587	676.9214	50.0655	-260.6029	-52.8827	703.0752	-0.12383	88.1953	-7.339	30.7418	7.2546	83.7036	-0.0592	0.0182	-0.0073	-0.0462	0.0165	0.9585
8.5477	-9.5643	717.7921	54.5383	-275.3097	-57.0054	742.8581	-2.7245	64.0599	-5.8353	22.275	6.7002	60.9859	-0.0592	0.0182	-0.0073	-0.0462	0.0165	0.9585
8.5611	-9.7616	754.0494	58.7423	-288.0845	-60.8133	777.6075	-4.5766	44.5621	-4.5849	15.4467	6.123	42.589	-0.0592	0.0182	-0.0073	-0.0462	0.0165	0.9585
8.5744	-9.9111	783.6653	62.509	-298.1626	-64.1209	805.3141	-5.5859	29.2379	-3.5112	10.0934	5.4162	28.09	-0.0592	0.0182	-0.0073	-0.0462	0.0165	0.9585
8.5878	-9.9676	805.234	65.6722	-305.0382	-66.7531	824.6292	-5.7434	17.5555	-2.5672	6.0242	4.5376	17.0039	-0.0592	0.0182	-0.0073	-0.0462	0.0165	0.9585
8.6011	-9.9083	818.049	68.1489	-308.4902	-68.6269	834.9346	-5.1515	9.0195	-1.7438	3.0616	3.5212	8.8665	-0.0592	0.0182	-0.0073	-0.0462	0.0165	0.9585
8.6145	-9.6586	822.133	69.8393	-308.593	-69.6369	836.3199	-4.1022	3.2337	-1.0724	1.0604	2.502	3.317	-0.0592	0.0182	-0.0073	-0.0462	0.0165	0.9585
8.6279	-9.1277	818.2114	70.6974	-305.6941	-69.7207	829.5545	-2.9484	-0.25078	-0.57557	-0.14203	1.6231	-0.042618	-0.0592	0.0182	-0.0073	-0.0462	0.0165	0.9585
8.6412	-8.2177	807.6174	70.7146	-300.3674	-68.8528	815.9909	-1.8958	-2.0101	-0.24368	-0.74581	0.94565	-1.7503	-0.0592	0.0182	-0.0073	-0.0462	0.0165	0.9585
